<svg width="300" height="123" viewBox="0 0 300 123" fill="none" xmlns="http://www.w3.org/2000/svg">
<rect x="158" y="14" width="109" height="63" rx="13" fill="black"/>
<path d="M26.4 61L26.1 59.4C26.8 58.8333 27.5667 58.3167 28.4 57.85C29.2333 57.35 30.1167 56.8833 31.05 56.45L31.1 61H26.4ZM39.6 61L39.75 57.05L46.65 58.25L46.6 61H39.6ZM32.65 31.55L26.15 30.45L26.2 27.7H32.75L32.65 31.55ZM48.65 38.85L46.7 28.15L55.45 27.7C55.4833 28.4667 55.4667 29.5167 55.4 30.85C55.3333 32.15 55.2167 33.5167 55.05 34.95C54.8833 36.3833 54.6667 37.6833 54.4 38.85H48.65ZM29.95 61V27.7H40.45V61H29.95ZM53.7 33.55L39.15 32.5L35.4 27.7H55.45L53.7 33.55ZM51.4 48.5L39.4 47.9V43.2L51.4 42.35V48.5ZM56.6188 61V38.75L63.7188 35.85L66.6688 38.5V61H56.6188ZM52.8688 61L52.8188 59.25C53.8854 58.5833 54.9854 58.0333 56.1188 57.6C57.2854 57.1667 58.3854 56.8333 59.4188 56.6L59.0188 61H52.8688ZM61.2688 61L62.9188 55.25C64.0188 55.5833 65.2521 56.0333 66.6188 56.6C68.0188 57.1333 69.2354 57.7833 70.2688 58.55L70.2188 61H61.2688ZM52.8688 40.25L52.7688 37.8C54.3688 37.2333 56.0854 36.7833 57.9188 36.45C59.7854 36.1167 61.7188 35.9167 63.7188 35.85L63.4688 40.15L59.1188 41.85L52.8688 40.25ZM62.1688 33.85C60.8688 33.25 59.6521 32.5167 58.5188 31.65C57.3854 30.75 56.3854 29.7833 55.5188 28.75C56.2188 27.3833 57.0354 26.1333 57.9688 25C58.9021 23.8667 59.9354 22.8667 61.0688 22C62.3354 22.7 63.5021 23.55 64.5688 24.55C65.6354 25.55 66.5688 26.6333 67.3688 27.8C66.7354 29 65.9688 30.1167 65.0688 31.15C64.2021 32.1833 63.2354 33.0833 62.1688 33.85ZM71.9781 61V38.75L79.0781 35.85L82.0281 38.9V61H71.9781ZM86.9281 61V46.95C86.9281 45.5833 86.6281 44.5 86.0281 43.7C85.4615 42.8667 84.5948 42.4833 83.4281 42.55C82.6615 42.5833 81.8448 42.8 80.9781 43.2C80.1448 43.5667 79.3115 44.0333 78.4781 44.6C77.6448 45.1333 76.8281 45.7 76.0281 46.3L75.9781 45.25C77.3115 43.75 78.6781 42.4 80.0781 41.2C81.5115 40 82.9448 38.9833 84.3781 38.15C85.8448 37.2833 87.2781 36.6 88.6781 36.1C89.3448 36.0667 90.1448 36.1333 91.0781 36.3C92.0115 36.4667 92.9615 36.8167 93.9281 37.35C94.8948 37.8833 95.7115 38.6833 96.3781 39.75C96.5448 40.0167 96.6615 40.3833 96.7281 40.85C96.8281 41.3167 96.8948 41.9667 96.9281 42.8C96.9615 43.6333 96.9781 44.8 96.9781 46.3V61H86.9281ZM68.2281 40.25L68.1281 37.8C69.7281 37.2333 71.4448 36.7833 73.2781 36.45C75.1448 36.1167 77.0781 35.9167 79.0781 35.85L78.8281 40.15L74.4781 41.85L68.2281 40.25ZM68.2781 61L68.2281 59.25C69.2948 58.5833 70.3948 58.0333 71.5281 57.6C72.6948 57.1667 73.7948 56.8333 74.8281 56.6L74.4281 61H68.2781ZM76.5781 61L78.2281 55.25C79.3281 55.5833 80.4281 56.0333 81.5281 56.6C82.6615 57.1333 83.7448 57.7833 84.7781 58.55L84.7281 61H76.5781ZM91.5281 61L93.1781 55.25C94.2781 55.5833 95.5281 56.0333 96.9281 56.6C98.3281 57.1333 99.5448 57.7833 100.578 58.55L100.478 61H91.5281ZM98.0152 61L97.7152 59.4C98.4152 58.8333 99.1819 58.3167 100.015 57.85C100.849 57.35 101.732 56.8833 102.665 56.45L102.715 61H98.0152ZM127.015 61L118.065 60.6L121.865 49.65L127.615 50.1C127.649 51.0667 127.632 52.2 127.565 53.5C127.532 54.8 127.465 56.1167 127.365 57.45C127.265 58.75 127.149 59.9333 127.015 61ZM104.665 31.55L98.1652 30.45L98.2152 27.7H104.765L104.665 31.55ZM120.665 38.45L118.715 28.15L127.465 27.7C127.499 28.4667 127.482 29.4833 127.415 30.75C127.349 31.9833 127.232 33.2833 127.065 34.65C126.899 36.0167 126.682 37.2833 126.415 38.45H120.665ZM101.965 61V27.7H112.465V61H101.965ZM122.615 47.1L110.615 46.6V42.35L122.615 41.35V47.1ZM126.815 33.65L110.365 32.5L106.615 27.7H127.465L126.815 33.65ZM106.965 61L110.715 56.1L126.915 54.65L126.965 61H106.965ZM144.385 61L128.435 38.75L138.535 36.9L155.135 61H144.385ZM127.785 61L126.485 59.1L137.285 48.05L139.435 52.3L137.835 61H127.785ZM144.285 50.1L142.835 45.3L144.385 36.9H153.735L154.635 39.3L144.285 50.1ZM136.685 46.2L126.785 39.7V36.9H138.535L136.685 46.2ZM151.235 40.6L146.235 36.9H155.135L155.185 39.15C154.651 39.45 154.051 39.7167 153.385 39.95C152.718 40.1833 152.001 40.4 151.235 40.6ZM126.335 61L126.285 58.8C127.385 58.4333 128.485 58.0667 129.585 57.7C130.685 57.3333 131.785 56.9667 132.885 56.6L132.485 61H126.335ZM147.635 61L149.385 55.25C150.485 55.5833 151.585 56.0333 152.685 56.6C153.818 57.1333 154.901 57.7833 155.935 58.55L155.885 61H147.635Z" fill="black"/>
<path d="M181.445 61L180.845 54.95C181.679 55.3167 182.462 55.5833 183.195 55.75C183.929 55.9167 184.612 56 185.245 56C186.579 56 187.729 55.6833 188.695 55.05C189.695 54.3833 190.512 53.5 191.145 52.4C191.779 51.3 192.245 50.0833 192.545 48.75C192.879 47.3833 193.045 46.0167 193.045 44.65C193.045 42.9833 192.829 41.35 192.395 39.75C191.962 38.1167 191.345 36.6333 190.545 35.3C189.745 33.9667 188.779 32.9167 187.645 32.15L181.995 32.95L168.295 27.7C171.229 27.5333 174.095 27.4333 176.895 27.4C179.729 27.3333 182.612 27.3 185.545 27.3C188.645 27.3 191.345 27.8 193.645 28.8C195.945 29.7667 197.845 31.0667 199.345 32.7C200.879 34.3 202.012 36.1 202.745 38.1C203.512 40.0667 203.895 42.05 203.895 44.05C203.895 46.25 203.529 48.3667 202.795 50.4C202.062 52.4333 200.945 54.25 199.445 55.85C197.979 57.4167 196.112 58.6667 193.845 59.6C191.612 60.5333 188.979 61 185.945 61H181.445ZM167.845 61L167.545 59.4C168.245 58.8333 169.012 58.3167 169.845 57.85C170.679 57.35 171.562 56.8833 172.495 56.45L172.545 61H167.845ZM171.795 61V27.7H182.295V61H171.795ZM174.745 31.55L168.245 30.45L168.295 27.7H174.845L174.745 31.55ZM220.837 61.55C218.804 61.95 216.82 61.95 214.887 61.55C212.954 61.15 211.22 60.4167 209.687 59.35C208.154 58.2833 206.937 56.9 206.037 55.2C205.137 53.4667 204.687 51.4667 204.687 49.2C204.687 47.1333 205.054 45.2833 205.787 43.65C206.52 41.9833 207.504 40.5667 208.737 39.4C210.004 38.2333 211.42 37.35 212.987 36.75C214.587 36.1167 216.22 35.8 217.887 35.8C219.12 35.8 220.404 36 221.737 36.4C223.104 36.7667 224.37 37.3833 225.537 38.25C226.704 39.1167 227.637 40.2833 228.337 41.75C229.07 43.1833 229.437 44.9667 229.437 47.1L220.437 47.45C220.604 46.45 220.554 45.4167 220.287 44.35C220.054 43.2833 219.637 42.3833 219.037 41.65C218.47 40.8833 217.754 40.45 216.887 40.35C216.22 40.8167 215.654 41.4833 215.187 42.35C214.754 43.2167 214.42 44.1667 214.187 45.2C213.987 46.2333 213.887 47.2167 213.887 48.15C213.887 49.7833 214.187 51.15 214.787 52.25C215.387 53.35 216.22 54.1833 217.287 54.75C218.387 55.3167 219.62 55.6 220.987 55.6C222.054 55.6 223.07 55.4333 224.037 55.1C225.037 54.7667 226.137 54.2833 227.337 53.65L228.737 56.75L220.837 61.55ZM226.487 50.05L210.987 50L210.187 46.05L224.037 45.1L229.437 47.1L226.487 50.05ZM239.018 61.2L230.468 38.45L240.768 36.9L244.468 48.8L245.168 52.1H245.718C245.952 50.4667 246.152 48.8 246.318 47.1C246.518 45.3667 246.702 43.6333 246.868 41.9C247.035 40.1667 247.168 38.5 247.268 36.9H258.118C256.385 40.8 254.702 44.8 253.068 48.9C251.468 53 249.785 56.9833 248.018 60.85C247.218 61.0833 246.235 61.25 245.068 61.35C243.935 61.45 242.818 61.4833 241.718 61.45C240.618 61.4167 239.718 61.3333 239.018 61.2ZM238.068 46.2L228.518 39.7V36.9H240.718L238.068 46.2ZM255.568 41.4L249.568 36.9H258.468L258.518 39.55C258.085 39.9167 257.618 40.2667 257.118 40.6C256.652 40.9 256.135 41.1667 255.568 41.4Z" fill="white"/>
</svg>
